<mxfile host="Electron" modified="2024-05-28T00:24:05.243Z" agent="Mozilla/5.0 (Windows NT 10.0; Win64; x64) AppleWebKit/537.36 (KHTML, like Gecko) draw.io/24.4.0 Chrome/120.0.6099.109 Electron/28.1.0 Safari/537.36" etag="Gnzlb585vjaYBYcZV-mI" version="24.4.0" type="device" pages="2">
  <diagram id="zmyRBkrhuQNr2pO8CwxV" name="General Architecture">
    <mxGraphModel dx="3066" dy="1359" grid="1" gridSize="10" guides="1" tooltips="1" connect="1" arrows="1" fold="1" page="0" pageScale="1" pageWidth="827" pageHeight="1169" math="0" shadow="0">
      <root>
        <mxCell id="0" />
        <mxCell id="1" parent="0" />
        <mxCell id="WIaLbskBH2RuXim7a0bt-20" value="Phone" style="strokeColor=#dddddd;shadow=1;strokeWidth=1;rounded=1;absoluteArcSize=1;arcSize=2;labelPosition=center;verticalLabelPosition=middle;align=center;verticalAlign=bottom;spacingLeft=0;fontColor=#999999;fontSize=12;whiteSpace=wrap;spacingBottom=2;html=1;" vertex="1" parent="1">
          <mxGeometry x="-750" y="107.5" width="70" height="85" as="geometry" />
        </mxCell>
        <mxCell id="WIaLbskBH2RuXim7a0bt-21" value="" style="sketch=0;dashed=0;connectable=0;html=1;fillColor=#757575;strokeColor=none;shape=mxgraph.gcp2.phone;part=1;" vertex="1" parent="WIaLbskBH2RuXim7a0bt-20">
          <mxGeometry x="0.5" width="32" height="50" relative="1" as="geometry">
            <mxPoint x="-16" y="10" as="offset" />
          </mxGeometry>
        </mxCell>
        <mxCell id="sSrqozn0_6WIwNc4vqpM-6" value="" style="group" vertex="1" connectable="0" parent="1">
          <mxGeometry x="-640" y="-80" width="1540" height="460" as="geometry" />
        </mxCell>
        <mxCell id="WIaLbskBH2RuXim7a0bt-1" value="" style="rounded=0;whiteSpace=wrap;html=1;fillColor=#F6F6F6;strokeColor=none;" vertex="1" parent="sSrqozn0_6WIwNc4vqpM-6">
          <mxGeometry width="1540" height="460" as="geometry" />
        </mxCell>
        <mxCell id="WIaLbskBH2RuXim7a0bt-2" value="" style="group" vertex="1" connectable="0" parent="sSrqozn0_6WIwNc4vqpM-6">
          <mxGeometry x="30" y="40" width="360" height="390" as="geometry" />
        </mxCell>
        <mxCell id="WIaLbskBH2RuXim7a0bt-3" value="" style="rounded=0;whiteSpace=wrap;html=1;fillColor=#F3E5F5;strokeColor=none;" vertex="1" parent="WIaLbskBH2RuXim7a0bt-2">
          <mxGeometry width="360" height="390" as="geometry" />
        </mxCell>
        <mxCell id="WIaLbskBH2RuXim7a0bt-4" value="" style="group" vertex="1" connectable="0" parent="WIaLbskBH2RuXim7a0bt-2">
          <mxGeometry x="30" y="40" width="300" height="320" as="geometry" />
        </mxCell>
        <mxCell id="WIaLbskBH2RuXim7a0bt-5" value="" style="rounded=0;whiteSpace=wrap;html=1;fillColor=#ECEFF1;strokeColor=none;" vertex="1" parent="WIaLbskBH2RuXim7a0bt-4">
          <mxGeometry width="300" height="320" as="geometry" />
        </mxCell>
        <mxCell id="WIaLbskBH2RuXim7a0bt-6" value="" style="group" vertex="1" connectable="0" parent="WIaLbskBH2RuXim7a0bt-4">
          <mxGeometry x="30" y="180" width="240" height="120" as="geometry" />
        </mxCell>
        <mxCell id="WIaLbskBH2RuXim7a0bt-7" value="" style="rounded=0;whiteSpace=wrap;html=1;fillColor=#E3F2FD;strokeColor=none;" vertex="1" parent="WIaLbskBH2RuXim7a0bt-6">
          <mxGeometry width="240" height="120" as="geometry" />
        </mxCell>
        <mxCell id="WIaLbskBH2RuXim7a0bt-8" value="" style="strokeColor=#dddddd;shadow=1;strokeWidth=1;rounded=1;absoluteArcSize=1;arcSize=2;" vertex="1" parent="WIaLbskBH2RuXim7a0bt-6">
          <mxGeometry x="20" y="40" width="200" height="60" as="geometry" />
        </mxCell>
        <mxCell id="WIaLbskBH2RuXim7a0bt-9" value="&lt;font color=&quot;#000000&quot;&gt;default&lt;/font&gt;&lt;br&gt;Firestore" style="editableCssRules=.*;html=1;fontColor=#999999;shape=image;verticalLabelPosition=middle;verticalAlign=middle;labelPosition=right;align=left;spacingLeft=20;part=1;points=[];imageAspect=0;image=data:image/svg+xml,PHN2ZyB4bWxucz0iaHR0cDovL3d3dy53My5vcmcvMjAwMC9zdmciIHhtbG5zOnY9Imh0dHBzOi8vdmVjdGEuaW8vbmFubyIgd2lkdGg9IjMyMy45MDU2MTAzOTg2NzUxNSIgaGVpZ2h0PSIzNzYuNDIyMjk0OTYzNjg0MDciIHZpZXdCb3g9Ii0wLjA5NzAwMDAwMjg2MTAyMjk1IDAuMjg3OTk5OTg3NjAyMjMzOSA4NS42OTk5OTY5NDgyNDIxOSA5OS41OTUwMDEyMjA3MDMxMiI+JiN4YTs8c3R5bGUgdHlwZT0idGV4dC9jc3MiPiYjeGE7CS5zdDB7ZmlsbDojYWVjYmZhO30mI3hhOwkuc3Qxe2ZpbGw6IzY2OWRmNjt9JiN4YTsJLnN0MntmaWxsOiM0Mjg1ZjQ7fSYjeGE7PC9zdHlsZT4mI3hhOwk8cGF0aCBjbGFzcz0ic3QwIiBkPSJNLS4wOTcgNzUuODE1VjU1Ljg3NGw0Mi44NS0yMC4xODN2MTkuMDd6bTAtMzUuNDAzVjIwLjQ3MUw0Mi43NTMuMjg4djE5LjA3eiIvPiYjeGE7CTxwYXRoIGNsYXNzPSJzdDEiIGQ9Ik04NS42MDMgNzUuODE1VjU1Ljg3NGwtNDIuODUtMjAuMTgzdjE5LjA3em0wLTM1LjQwM1YyMC40NzFMNDIuNzUzLjI4OHYxOS4wN3oiLz4mI3hhOwk8cGF0aCBjbGFzcz0ic3QyIiBkPSJNNDIuNzUzIDgwLjMxNGwxNi4yMTctNy41MjUgMjEuMDg0IDkuNzE3LTM3LjMwMSAxNy4zNzd6Ii8+JiN4YTs8L3N2Zz4=;" vertex="1" parent="WIaLbskBH2RuXim7a0bt-8">
          <mxGeometry width="26" height="30" relative="1" as="geometry">
            <mxPoint x="17" y="15" as="offset" />
          </mxGeometry>
        </mxCell>
        <mxCell id="WIaLbskBH2RuXim7a0bt-10" value="&lt;font style=&quot;font-size: 12px;&quot;&gt;Storage Layer&lt;/font&gt;" style="text;html=1;align=center;verticalAlign=middle;whiteSpace=wrap;rounded=0;fontSize=16;" vertex="1" parent="WIaLbskBH2RuXim7a0bt-6">
          <mxGeometry width="90" height="30" as="geometry" />
        </mxCell>
        <mxCell id="WIaLbskBH2RuXim7a0bt-11" value="" style="group" vertex="1" connectable="0" parent="WIaLbskBH2RuXim7a0bt-4">
          <mxGeometry x="30" y="50" width="240" height="120" as="geometry" />
        </mxCell>
        <mxCell id="WIaLbskBH2RuXim7a0bt-12" value="" style="rounded=0;whiteSpace=wrap;html=1;fillColor=#E3F2FD;strokeColor=none;align=left;" vertex="1" parent="WIaLbskBH2RuXim7a0bt-11">
          <mxGeometry width="240" height="120" as="geometry" />
        </mxCell>
        <mxCell id="WIaLbskBH2RuXim7a0bt-13" value="&lt;font style=&quot;font-size: 12px;&quot;&gt;Provider Layer&lt;/font&gt;" style="text;html=1;align=center;verticalAlign=middle;whiteSpace=wrap;rounded=0;fontSize=16;" vertex="1" parent="WIaLbskBH2RuXim7a0bt-11">
          <mxGeometry width="90" height="30" as="geometry" />
        </mxCell>
        <mxCell id="WIaLbskBH2RuXim7a0bt-14" value="" style="strokeColor=#dddddd;shadow=1;strokeWidth=1;rounded=1;absoluteArcSize=1;arcSize=2;" vertex="1" parent="WIaLbskBH2RuXim7a0bt-11">
          <mxGeometry x="15" y="40" width="200" height="60" as="geometry" />
        </mxCell>
        <mxCell id="WIaLbskBH2RuXim7a0bt-15" value="&lt;font color=&quot;#000000&quot;&gt;sif-med-mobileapp-&lt;/font&gt;&lt;div&gt;&lt;font color=&quot;#000000&quot;&gt;backend-dev&lt;/font&gt;&lt;br&gt;Cloud Run&lt;/div&gt;" style="editableCssRules=.*;html=1;fontColor=#999999;shape=image;verticalLabelPosition=middle;verticalAlign=middle;labelPosition=right;align=left;spacingLeft=20;part=1;points=[];imageAspect=0;image=data:image/svg+xml,PHN2ZyB4bWxucz0iaHR0cDovL3d3dy53My5vcmcvMjAwMC9zdmciIHhtbG5zOnY9Imh0dHBzOi8vdmVjdGEuaW8vbmFubyIgd2lkdGg9IjM2NS40NjQ5OTY3NzA0MjQ5MyIgaGVpZ2h0PSIzNzkuMjIyOTk0NDYzNTc3OTUiIHZpZXdCb3g9IjAgMCA5Ni42OTU5OTkxNDU1MDc4MSAxMDAuMzM1OTk4NTM1MTU2MjUiPiYjeGE7PHN0eWxlIHR5cGU9InRleHQvY3NzIj4mI3hhOwkuc3Qwe2ZpbGw6IzQyODVmNDt9JiN4YTsJLnN0MXtmaWxsOiNhZWNiZmE7fSYjeGE7PC9zdHlsZT4mI3hhOwk8cGF0aCBjbGFzcz0ic3QwIiBkPSJNMjkuNzk0IDEwMC4zMzZMNDYuOTIgNTAuMTY4aDQ5Ljc3NnpNMCA5OS42NzFsMTIuOTc2LTQ5LjUwMkgyOS4yMkwxNi44OTcgOTIuMDU0eiIvPiYjeGE7CTxwYXRoIGNsYXNzPSJzdDEiIGQ9Ik0yOS43OTQgMEw0Ni45MiA1MC4xNjhoNDkuNzc2ek0wIC42NjZsMTIuOTc2IDQ5LjUwMkgyOS4yMkwxNi44OTcgOC4yODN6Ii8+JiN4YTs8L3N2Zz4=;" vertex="1" parent="WIaLbskBH2RuXim7a0bt-14">
          <mxGeometry width="30" height="30" relative="1" as="geometry">
            <mxPoint x="15" y="15" as="offset" />
          </mxGeometry>
        </mxCell>
        <mxCell id="WIaLbskBH2RuXim7a0bt-16" value="&lt;font style=&quot;font-size: 12px;&quot;&gt;Region: us-central1&lt;/font&gt;" style="text;html=1;align=center;verticalAlign=middle;whiteSpace=wrap;rounded=0;fontSize=16;" vertex="1" parent="WIaLbskBH2RuXim7a0bt-4">
          <mxGeometry x="10" width="110" height="30" as="geometry" />
        </mxCell>
        <mxCell id="zqAJkGT3YiTMNtJ41EG3-1" value="" style="edgeStyle=orthogonalEdgeStyle;fontSize=12;html=1;endArrow=blockThin;endFill=1;rounded=0;strokeWidth=2;endSize=4;startSize=4;dashed=0;strokeColor=#4284F3;curved=1;exitX=1;exitY=0.5;exitDx=0;exitDy=0;entryX=1;entryY=0.75;entryDx=0;entryDy=0;" edge="1" parent="WIaLbskBH2RuXim7a0bt-4" source="WIaLbskBH2RuXim7a0bt-8" target="WIaLbskBH2RuXim7a0bt-14">
          <mxGeometry width="100" relative="1" as="geometry">
            <mxPoint x="190" y="440" as="sourcePoint" />
            <mxPoint x="290" y="440" as="targetPoint" />
            <Array as="points">
              <mxPoint x="280" y="250" />
              <mxPoint x="280" y="135" />
            </Array>
          </mxGeometry>
        </mxCell>
        <mxCell id="WIaLbskBH2RuXim7a0bt-18" value="&lt;font style=&quot;font-size: 12px;&quot;&gt;Mobile Application System&lt;/font&gt;" style="text;html=1;align=center;verticalAlign=middle;whiteSpace=wrap;rounded=0;fontSize=16;" vertex="1" parent="WIaLbskBH2RuXim7a0bt-2">
          <mxGeometry width="160" height="30" as="geometry" />
        </mxCell>
        <mxCell id="WIaLbskBH2RuXim7a0bt-19" value="&lt;font style=&quot;font-size: 12px;&quot;&gt;Google Cloud Platform&lt;/font&gt;" style="text;html=1;align=center;verticalAlign=middle;whiteSpace=wrap;rounded=0;fontSize=16;" vertex="1" parent="sSrqozn0_6WIwNc4vqpM-6">
          <mxGeometry width="150" height="30" as="geometry" />
        </mxCell>
        <mxCell id="QXXMCkPutqWShWGLUhhg-57" value="" style="group" vertex="1" connectable="0" parent="sSrqozn0_6WIwNc4vqpM-6">
          <mxGeometry x="420" y="40" width="1090" height="390" as="geometry" />
        </mxCell>
        <mxCell id="QXXMCkPutqWShWGLUhhg-4" value="" style="rounded=0;whiteSpace=wrap;html=1;fillColor=#F1F8E9;strokeColor=none;" vertex="1" parent="QXXMCkPutqWShWGLUhhg-57">
          <mxGeometry width="1090" height="390" as="geometry" />
        </mxCell>
        <mxCell id="QXXMCkPutqWShWGLUhhg-5" value="&lt;span style=&quot;font-size: 12px;&quot;&gt;LakeHouse System&lt;/span&gt;" style="text;html=1;align=center;verticalAlign=middle;whiteSpace=wrap;rounded=0;fontSize=16;" vertex="1" parent="QXXMCkPutqWShWGLUhhg-57">
          <mxGeometry width="130" height="30" as="geometry" />
        </mxCell>
        <mxCell id="QXXMCkPutqWShWGLUhhg-56" value="" style="group" vertex="1" connectable="0" parent="QXXMCkPutqWShWGLUhhg-57">
          <mxGeometry x="20" y="40" width="1040" height="320" as="geometry" />
        </mxCell>
        <mxCell id="QXXMCkPutqWShWGLUhhg-7" value="" style="rounded=0;whiteSpace=wrap;html=1;fillColor=#ECEFF1;strokeColor=none;" vertex="1" parent="QXXMCkPutqWShWGLUhhg-56">
          <mxGeometry width="1040" height="320" as="geometry" />
        </mxCell>
        <mxCell id="QXXMCkPutqWShWGLUhhg-8" value="&lt;font style=&quot;font-size: 12px;&quot;&gt;Region: us-central1&lt;/font&gt;" style="text;html=1;align=center;verticalAlign=middle;whiteSpace=wrap;rounded=0;fontSize=16;" vertex="1" parent="QXXMCkPutqWShWGLUhhg-56">
          <mxGeometry width="120" height="30" as="geometry" />
        </mxCell>
        <mxCell id="QXXMCkPutqWShWGLUhhg-54" value="" style="group" vertex="1" connectable="0" parent="QXXMCkPutqWShWGLUhhg-56">
          <mxGeometry x="30" y="40" width="980" height="230" as="geometry" />
        </mxCell>
        <mxCell id="QXXMCkPutqWShWGLUhhg-50" value="" style="group" vertex="1" connectable="0" parent="QXXMCkPutqWShWGLUhhg-54">
          <mxGeometry x="660" width="320" height="230" as="geometry" />
        </mxCell>
        <mxCell id="QXXMCkPutqWShWGLUhhg-17" value="" style="rounded=0;whiteSpace=wrap;html=1;fillColor=#E3F2FD;strokeColor=none;align=left;" vertex="1" parent="QXXMCkPutqWShWGLUhhg-50">
          <mxGeometry width="320" height="230" as="geometry" />
        </mxCell>
        <mxCell id="QXXMCkPutqWShWGLUhhg-18" value="&lt;span style=&quot;font-size: 12px;&quot;&gt;Orchestration Layer&lt;/span&gt;" style="text;html=1;align=center;verticalAlign=middle;whiteSpace=wrap;rounded=0;fontSize=16;" vertex="1" parent="QXXMCkPutqWShWGLUhhg-50">
          <mxGeometry width="130" height="30" as="geometry" />
        </mxCell>
        <mxCell id="QXXMCkPutqWShWGLUhhg-37" value="" style="strokeColor=#dddddd;shadow=1;strokeWidth=1;rounded=1;absoluteArcSize=1;arcSize=2;" vertex="1" parent="QXXMCkPutqWShWGLUhhg-50">
          <mxGeometry x="15" y="90" width="290" height="60" as="geometry" />
        </mxCell>
        <mxCell id="QXXMCkPutqWShWGLUhhg-38" value="&lt;font color=&quot;#000000&quot;&gt;&lt;font&gt;cs-lakehouse-mobileapp-scheduler-dev&lt;/font&gt;&lt;br&gt;&lt;/font&gt;CloudScheduler" style="editableCssRules=.*;html=1;shape=image;verticalLabelPosition=middle;labelBackgroundColor=none;verticalAlign=middle;aspect=fixed;imageAspect=0;image=data:image/svg+xml,PHN2ZyB4bWxucz0iaHR0cDovL3d3dy53My5vcmcvMjAwMC9zdmciIHhtbG5zOnY9Imh0dHBzOi8vdmVjdGEuaW8vbmFubyIgd2lkdGg9IjM2MC4zMDM3NjY4NjA4MzYzIiBoZWlnaHQ9IjM3OC4wNTExNTgwNzc0MDg4IiB2aWV3Qm94PSItMC4wMDAxNjI0MjExNDM2MTM3NTU3IC0wLjAwMDEwMDAwNTk0OTIwNzExNTkyIDk1LjMzMDI2MTIzMDQ2ODc1IDEwMC4wMjYxMDAxNTg2OTE0Ij4mI3hhOzxzdHlsZSB0eXBlPSJ0ZXh0L2NzcyI+JiN4YTsJLnN0MHtmaWxsOiM0Mjg1ZjQ7fSYjeGE7CS5zdDF7ZmlsbDojYWVjYmZhO30mI3hhOwkuc3Qye2ZpbGw6IzY2OWRmNjt9JiN4YTs8L3N0eWxlPiYjeGE7CTxwYXRoIGNsYXNzPSJzdDAiIGQ9Ik03OS45NzEgNzcuNzE1bC03LjM1OSA3LjQ4OCA4LjYzOSA4LjQ5IDcuMzU5LTcuNDg4em0tNjUuMDk2LjA2MWwtOC42NDEgOC40OTIgNy4zNjEgNy40ODggOC42MzktOC40OXoiLz4mI3hhOwk8cGF0aCBjbGFzcz0ic3QxIiBkPSJNNzkuNTUzLjIyMWE1LjI1IDUuMjUgMCAwIDAtMy42NiA4Ljk4NEw4Ni4zODkgMTkuNThhNS4yNSA1LjI1IDAgMCAwIDguOTQxLTMuNzY1IDUuMjUgNS4yNSAwIDAgMC0xLjU2LTMuNzA0TDgzLjI3NSAxLjczOEE1LjI1IDUuMjUgMCAwIDAgNzkuNTUzLjIyMXpNMTUuOTE2IDBhNS4yNSA1LjI1IDAgMCAwLTMuNzIzIDEuNTE2TDEuNjk5IDExLjg5MWE1LjI1IDUuMjUgMCAwIDAtLjA0MyA3LjQyNCA1LjI1IDUuMjUgMCAwIDAgNy40MjQuMDQzTDE5LjU3NiA4Ljk4MkE1LjI1IDUuMjUgMCAwIDAgMTUuOTE2IDB6Ii8+JiN4YTsJPHBhdGggY2xhc3M9InN0MCIgZD0iTTQ4LjEzOCAyNi4yNGMxMy4zNDcgMCAyNS40MzIgMTEuMTM2IDI1LjMxIDI2LjQ4MSAwIDE1LjExLTEyLjI2NyAyNS42NzMtMjUuMTg5IDI1LjY3My0xMS4xNDkgMC0xOC4zMTctNS4xNzEtMjEuOTYtMTAuNzM4bDIxLjgzOS0xNS4wOTd6Ii8+JiN4YTsJPHBhdGggY2xhc3M9InN0MiIgZD0iTTgxLjI1IDkzLjY5M2w0LjY2NCA0LjU4NmE1LjI1IDUuMjUgMCAxIDAgNy4zNjEtNy40OWwtNC42NjYtNC41ODR6TTYuMjM0IDg2LjI2OEwxLjU3IDkwLjg1MWE1LjI1IDUuMjUgMCAwIDAtLjA2NSA3LjQyNCA1LjI1IDUuMjUgMCAwIDAgNy40MjQuMDY0bDQuNjY2LTQuNTg0ek00Ny4zNzEgNS41NzhDMjEuMzQ5IDUuNTc4LjE0NiAyNi43NzkuMTQ2IDUyLjgwMXMyMS4yMDMgNDcuMjI1IDQ3LjIyNSA0Ny4yMjUgNDcuMjI1LTIxLjIwMyA0Ny4yMjUtNDcuMjI1UzczLjM5MyA1LjU3OCA0Ny4zNzEgNS41Nzh6bTAgMTBhMzcuMTUgMzcuMTUgMCAwIDEgMzcuMjI1IDM3LjIyM2MwIDIwLjYxNy0xNi42MDcgMzcuMjI1LTM3LjIyNSAzNy4yMjVTMTAuMTQ2IDczLjQxOCAxMC4xNDYgNTIuODAxYTM3LjE1IDM3LjE1IDAgMCAxIDM3LjIyNS0zNy4yMjN6Ii8+JiN4YTs8L3N2Zz4=;align=left;labelPosition=right;spacingLeft=20;fontColor=#999999;" vertex="1" parent="QXXMCkPutqWShWGLUhhg-37">
          <mxGeometry width="30" height="28" relative="1" as="geometry">
            <mxPoint x="15" y="16" as="offset" />
          </mxGeometry>
        </mxCell>
        <mxCell id="QXXMCkPutqWShWGLUhhg-34" value="" style="group" vertex="1" connectable="0" parent="QXXMCkPutqWShWGLUhhg-54">
          <mxGeometry width="320" height="230" as="geometry" />
        </mxCell>
        <mxCell id="QXXMCkPutqWShWGLUhhg-51" value="" style="group" vertex="1" connectable="0" parent="QXXMCkPutqWShWGLUhhg-34">
          <mxGeometry width="320" height="230" as="geometry" />
        </mxCell>
        <mxCell id="QXXMCkPutqWShWGLUhhg-35" value="" style="rounded=0;whiteSpace=wrap;html=1;fillColor=#E3F2FD;strokeColor=none;align=left;" vertex="1" parent="QXXMCkPutqWShWGLUhhg-51">
          <mxGeometry width="320" height="230" as="geometry" />
        </mxCell>
        <mxCell id="QXXMCkPutqWShWGLUhhg-36" value="&lt;span style=&quot;font-size: 12px;&quot;&gt;Storage Layer&lt;/span&gt;" style="text;html=1;align=center;verticalAlign=middle;whiteSpace=wrap;rounded=0;fontSize=16;" vertex="1" parent="QXXMCkPutqWShWGLUhhg-51">
          <mxGeometry width="90" height="30" as="geometry" />
        </mxCell>
        <mxCell id="QXXMCkPutqWShWGLUhhg-46" value="" style="strokeColor=#dddddd;shadow=1;strokeWidth=1;rounded=1;absoluteArcSize=1;arcSize=2;" vertex="1" parent="QXXMCkPutqWShWGLUhhg-51">
          <mxGeometry x="20" y="30" width="280" height="60" as="geometry" />
        </mxCell>
        <mxCell id="QXXMCkPutqWShWGLUhhg-47" value="&lt;font color=&quot;#000000&quot;&gt;sif-med-lakehouse-raw-data-dev&lt;/font&gt;&lt;br&gt;Cloud Storage" style="editableCssRules=.*;html=1;fontColor=#999999;shape=image;verticalLabelPosition=middle;verticalAlign=middle;labelPosition=right;align=left;spacingLeft=20;part=1;points=[];imageAspect=0;image=data:image/svg+xml,PHN2ZyB4bWxucz0iaHR0cDovL3d3dy53My5vcmcvMjAwMC9zdmciIHhtbG5zOnY9Imh0dHBzOi8vdmVjdGEuaW8vbmFubyIgd2lkdGg9IjIwIiBoZWlnaHQ9IjE2IiB2aWV3Qm94PSIwIDAgMjAgMTYiPiYjeGE7CTxzdHlsZSB0eXBlPSJ0ZXh0L2NzcyI+JiN4YTsJLnN0MHtmaWxsOiM0Mjg1ZjQ7fSYjeGE7CS5zdDF7ZmlsbDojNjY5ZGY2O30mI3hhOwkuc3Qye2ZpbGw6I2FlY2JmYTt9JiN4YTsJLnN0M3tmaWxsOiNmZmY7fSYjeGE7CTwvc3R5bGU+JiN4YTsJPHBhdGggY2xhc3M9InN0MiIgZD0iTTAgMGgyMHY3SDB6Ii8+JiN4YTsJPHBhdGggY2xhc3M9InN0MSIgZD0iTTE4IDBoMnY3aC0yeiIvPiYjeGE7CTxwYXRoIGNsYXNzPSJzdDAiIGQ9Ik0xOCA3bDItN2gtMnoiLz4mI3hhOwk8cGF0aCBjbGFzcz0ic3QxIiBkPSJNMCAwaDJ2N0gweiIvPiYjeGE7CTxnIGNsYXNzPSJzdDMiPiYjeGE7CQk8cGF0aCBkPSJNNCAzaDZ2MUg0eiIvPiYjeGE7CQk8cmVjdCB4PSIxMyIgeT0iMiIgd2lkdGg9IjMiIGhlaWdodD0iMyIgcng9IjEuNSIvPiYjeGE7CTwvZz4mI3hhOwk8cGF0aCBjbGFzcz0ic3QyIiBkPSJNMCA5aDIwdjdIMHoiLz4mI3hhOwk8cGF0aCBjbGFzcz0ic3QxIiBkPSJNMTggOWgydjdoLTJ6Ii8+JiN4YTsJPHBhdGggY2xhc3M9InN0MCIgZD0iTTE4IDE2bDItN2gtMnoiLz4mI3hhOwk8cGF0aCBjbGFzcz0ic3QxIiBkPSJNMCA5aDJ2N0gweiIvPiYjeGE7CTxnIGNsYXNzPSJzdDMiPiYjeGE7CQk8cGF0aCBkPSJNNCAxMmg2djFINHoiLz4mI3hhOwkJPHJlY3QgeD0iMTMiIHk9IjExIiB3aWR0aD0iMyIgaGVpZ2h0PSIzIiByeD0iMS41Ii8+JiN4YTsJPC9nPiYjeGE7PC9zdmc+;" vertex="1" parent="QXXMCkPutqWShWGLUhhg-46">
          <mxGeometry width="30" height="24" relative="1" as="geometry">
            <mxPoint x="15" y="18" as="offset" />
          </mxGeometry>
        </mxCell>
        <mxCell id="QXXMCkPutqWShWGLUhhg-48" value="" style="strokeColor=#dddddd;shadow=1;strokeWidth=1;rounded=1;absoluteArcSize=1;arcSize=2;" vertex="1" parent="QXXMCkPutqWShWGLUhhg-51">
          <mxGeometry x="20" y="110" width="280" height="60" as="geometry" />
        </mxCell>
        <mxCell id="QXXMCkPutqWShWGLUhhg-49" value="&lt;font color=&quot;#000000&quot;&gt;sif-med-lakehouse-trusted-data-dev&lt;/font&gt;&lt;br&gt;Cloud Storage" style="editableCssRules=.*;html=1;fontColor=#999999;shape=image;verticalLabelPosition=middle;verticalAlign=middle;labelPosition=right;align=left;spacingLeft=20;part=1;points=[];imageAspect=0;image=data:image/svg+xml,PHN2ZyB4bWxucz0iaHR0cDovL3d3dy53My5vcmcvMjAwMC9zdmciIHhtbG5zOnY9Imh0dHBzOi8vdmVjdGEuaW8vbmFubyIgd2lkdGg9IjIwIiBoZWlnaHQ9IjE2IiB2aWV3Qm94PSIwIDAgMjAgMTYiPiYjeGE7CTxzdHlsZSB0eXBlPSJ0ZXh0L2NzcyI+JiN4YTsJLnN0MHtmaWxsOiM0Mjg1ZjQ7fSYjeGE7CS5zdDF7ZmlsbDojNjY5ZGY2O30mI3hhOwkuc3Qye2ZpbGw6I2FlY2JmYTt9JiN4YTsJLnN0M3tmaWxsOiNmZmY7fSYjeGE7CTwvc3R5bGU+JiN4YTsJPHBhdGggY2xhc3M9InN0MiIgZD0iTTAgMGgyMHY3SDB6Ii8+JiN4YTsJPHBhdGggY2xhc3M9InN0MSIgZD0iTTE4IDBoMnY3aC0yeiIvPiYjeGE7CTxwYXRoIGNsYXNzPSJzdDAiIGQ9Ik0xOCA3bDItN2gtMnoiLz4mI3hhOwk8cGF0aCBjbGFzcz0ic3QxIiBkPSJNMCAwaDJ2N0gweiIvPiYjeGE7CTxnIGNsYXNzPSJzdDMiPiYjeGE7CQk8cGF0aCBkPSJNNCAzaDZ2MUg0eiIvPiYjeGE7CQk8cmVjdCB4PSIxMyIgeT0iMiIgd2lkdGg9IjMiIGhlaWdodD0iMyIgcng9IjEuNSIvPiYjeGE7CTwvZz4mI3hhOwk8cGF0aCBjbGFzcz0ic3QyIiBkPSJNMCA5aDIwdjdIMHoiLz4mI3hhOwk8cGF0aCBjbGFzcz0ic3QxIiBkPSJNMTggOWgydjdoLTJ6Ii8+JiN4YTsJPHBhdGggY2xhc3M9InN0MCIgZD0iTTE4IDE2bDItN2gtMnoiLz4mI3hhOwk8cGF0aCBjbGFzcz0ic3QxIiBkPSJNMCA5aDJ2N0gweiIvPiYjeGE7CTxnIGNsYXNzPSJzdDMiPiYjeGE7CQk8cGF0aCBkPSJNNCAxMmg2djFINHoiLz4mI3hhOwkJPHJlY3QgeD0iMTMiIHk9IjExIiB3aWR0aD0iMyIgaGVpZ2h0PSIzIiByeD0iMS41Ii8+JiN4YTsJPC9nPiYjeGE7PC9zdmc+;" vertex="1" parent="QXXMCkPutqWShWGLUhhg-48">
          <mxGeometry width="30" height="24" relative="1" as="geometry">
            <mxPoint x="15" y="18" as="offset" />
          </mxGeometry>
        </mxCell>
        <mxCell id="QXXMCkPutqWShWGLUhhg-24" value="" style="group" vertex="1" connectable="0" parent="QXXMCkPutqWShWGLUhhg-54">
          <mxGeometry x="330" y="120" width="320" height="110" as="geometry" />
        </mxCell>
        <mxCell id="QXXMCkPutqWShWGLUhhg-53" value="" style="group" vertex="1" connectable="0" parent="QXXMCkPutqWShWGLUhhg-24">
          <mxGeometry width="320" height="110" as="geometry" />
        </mxCell>
        <mxCell id="QXXMCkPutqWShWGLUhhg-25" value="" style="rounded=0;whiteSpace=wrap;html=1;fillColor=#E3F2FD;strokeColor=none;align=left;" vertex="1" parent="QXXMCkPutqWShWGLUhhg-53">
          <mxGeometry width="320" height="110" as="geometry" />
        </mxCell>
        <mxCell id="QXXMCkPutqWShWGLUhhg-26" value="" style="strokeColor=#dddddd;shadow=1;strokeWidth=1;rounded=1;absoluteArcSize=1;arcSize=2;" vertex="1" parent="QXXMCkPutqWShWGLUhhg-53">
          <mxGeometry x="20" y="30" width="280" height="60" as="geometry" />
        </mxCell>
        <mxCell id="QXXMCkPutqWShWGLUhhg-27" value="&lt;font color=&quot;#000000&quot;&gt;trusted_mobile_app_external_tables&lt;/font&gt;&lt;br&gt;BigQuery" style="editableCssRules=.*;html=1;fontColor=#999999;shape=image;verticalLabelPosition=middle;verticalAlign=middle;labelPosition=right;align=left;spacingLeft=20;part=1;points=[];imageAspect=0;image=data:image/svg+xml,PHN2ZyB4bWxucz0iaHR0cDovL3d3dy53My5vcmcvMjAwMC9zdmciIHhtbG5zOnY9Imh0dHBzOi8vdmVjdGEuaW8vbmFubyIgd2lkdGg9IjIwLjAwMTA0NTIyNzA1MDc4IiBoZWlnaHQ9IjIwLjAwMTA0NTIyNzA1MDc4IiBmaWxsLXJ1bGU9ImV2ZW5vZGQiIHZpZXdCb3g9IjAgMCAyMC4wMDEwNDUyMjcwNTA3OCAyMC4wMDEwNDUyMjcwNTA3OCI+JiN4YTsJPHN0eWxlIHR5cGU9InRleHQvY3NzIj4mI3hhOwkuc3Qwe2ZpbGw6I2FlY2JmYTt9JiN4YTsJLnN0MXtmaWxsOiM2NjlkZjY7fSYjeGE7CS5zdDJ7ZmlsbDojNDI4NWY0O30mI3hhOwk8L3N0eWxlPiYjeGE7CTxwYXRoIGNsYXNzPSJzdDAiIGQ9Ik00LjczIDguODN2Mi42M2E0LjkxIDQuOTEgMCAwIDAgMS43MSAxLjc0VjguODN6Ii8+JiN4YTsJPHBhdGggY2xhc3M9InN0MSIgZD0iTTcuODkgNi40MXY3LjUzQTcuNjIgNy42MiAwIDAgMCA5IDE0YTggOCAwIDAgMCAxIDBWNi40MXoiLz4mI3hhOwk8cGF0aCBjbGFzcz0ic3QwIiBkPSJNMTEuNjQgOS44NnYzLjI5YTUgNSAwIDAgMCAxLjctMS44MlY5Ljg2eiIvPiYjeGE7CTxwYXRoIGNsYXNzPSJzdDIiIGQ9Ik0xNS43NCAxNC4zMmwtMS40MiAxLjQyYS40Mi40MiAwIDAgMCAwIC42bDMuNTQgMy41NGEuNDIuNDIgMCAwIDAgLjU5IDBsMS40My0xLjQzYS40Mi40MiAwIDAgMCAwLS41OWwtMy41NC0zLjU0YS40Mi40MiAwIDAgMC0uNiAwIi8+JiN4YTsJPHBhdGggY2xhc3M9InN0MSIgZD0iTTkgMGE5IDkgMCAxIDAgMCAxOEE5IDkgMCAxIDAgOSAwbTAgMTUuNjlhNi42OCA2LjY4IDAgMCAxIC4wMDctMTMuMzYgNi42OCA2LjY4IDAgMCAxIDQuNzI3IDExLjQwM0E2LjY4IDYuNjggMCAwIDEgOSAxNS42OSIvPiYjeGE7PC9zdmc+;" vertex="1" parent="QXXMCkPutqWShWGLUhhg-26">
          <mxGeometry width="30" height="30" relative="1" as="geometry">
            <mxPoint x="15" y="15" as="offset" />
          </mxGeometry>
        </mxCell>
        <mxCell id="QXXMCkPutqWShWGLUhhg-28" value="&lt;font style=&quot;font-size: 12px;&quot;&gt;Analytics Layer&lt;/font&gt;" style="text;html=1;align=center;verticalAlign=middle;whiteSpace=wrap;rounded=0;fontSize=16;" vertex="1" parent="QXXMCkPutqWShWGLUhhg-53">
          <mxGeometry width="100" height="30" as="geometry" />
        </mxCell>
        <mxCell id="QXXMCkPutqWShWGLUhhg-52" value="" style="group" vertex="1" connectable="0" parent="QXXMCkPutqWShWGLUhhg-54">
          <mxGeometry x="330" width="320" height="110" as="geometry" />
        </mxCell>
        <mxCell id="QXXMCkPutqWShWGLUhhg-12" value="" style="rounded=0;whiteSpace=wrap;html=1;fillColor=#E3F2FD;strokeColor=none;align=left;" vertex="1" parent="QXXMCkPutqWShWGLUhhg-52">
          <mxGeometry width="320" height="110" as="geometry" />
        </mxCell>
        <mxCell id="QXXMCkPutqWShWGLUhhg-13" value="&lt;font style=&quot;font-size: 12px;&quot;&gt;Procesing Layer&lt;/font&gt;" style="text;html=1;align=center;verticalAlign=middle;whiteSpace=wrap;rounded=0;fontSize=16;" vertex="1" parent="QXXMCkPutqWShWGLUhhg-52">
          <mxGeometry width="100" height="30" as="geometry" />
        </mxCell>
        <mxCell id="QXXMCkPutqWShWGLUhhg-14" value="" style="strokeColor=#dddddd;shadow=1;strokeWidth=1;rounded=1;absoluteArcSize=1;arcSize=2;" vertex="1" parent="QXXMCkPutqWShWGLUhhg-52">
          <mxGeometry x="20" y="30" width="280" height="60" as="geometry" />
        </mxCell>
        <mxCell id="QXXMCkPutqWShWGLUhhg-15" value="&lt;font color=&quot;#000000&quot;&gt;dp_lakehouse_workflow_dev&lt;/font&gt;&lt;br&gt;Dataproc" style="editableCssRules=.*;html=1;fontColor=#999999;shape=image;verticalLabelPosition=middle;verticalAlign=middle;labelPosition=right;align=left;spacingLeft=20;part=1;points=[];imageAspect=0;image=data:image/svg+xml,PHN2ZyB4bWxucz0iaHR0cDovL3d3dy53My5vcmcvMjAwMC9zdmciIHhtbG5zOnY9Imh0dHBzOi8vdmVjdGEuaW8vbmFubyIgd2lkdGg9IjE5LjM2MzAxMjMxMzg0Mjc3MyIgaGVpZ2h0PSIxNy45NzU1MjY4MDk2OTIzODMiIHZpZXdCb3g9IjAuMDAwNTYwMDI1NjI2MzI3ODQyNSAwLjYxOTYyOTc0MDcxNTAyNjkgMTkuMzYzMDEyMzEzODQyNzczIDE3Ljk3NTUyNjgwOTY5MjM4MyI+JiN4YTsJPHN0eWxlIHR5cGU9InRleHQvY3NzIj4mI3hhOwkuc3Qwe2ZpbGwtcnVsZTpldmVub2RkO30mI3hhOwkuc3Qxe2ZpbGw6I2FlY2JmYTt9JiN4YTsJLnN0MntmaWxsOiM0Mjg1ZjQ7fSYjeGE7CS5zdDN7ZmlsbDojNjY5ZGY2O30mI3hhOwk8L3N0eWxlPiYjeGE7CTxnIGNsYXNzPSJzdDAgc3QxIj4mI3hhOwkJPHBhdGggZD0iTTQuNjkgMTYuNGwxMC4xOS01Ljg5Ljk3IDEuNjktMTAuMTggNS44OHoiLz4mI3hhOwkJPHBhdGggZD0iTTcuNSA0LjR2MTAuMzVsLTEuODcgMS40MVY0LjR6Ii8+JiN4YTsJCTxwYXRoIGQ9Ik0xNy40OSAxMS4ybC0uOTcgMS42OC04Ljk2LTUuMTktLjI2LTIuMzZ6Ii8+JiN4YTsJPC9nPiYjeGE7CTxwYXRoIGNsYXNzPSJzdDAgc3QyIiBkPSJNMTIuMzkgOC4yNkw3LjMgNS4zM2wuMjYgMi4zNiAxLjUxLjg2YTQgNCAwIDAgMCAzLjMyLS4yOXoiLz4mI3hhOwk8cGF0aCBjbGFzcz0ic3QwIHN0MSIgZD0iTTYuMTMgNi4yOWgwYTMuNzggMy43OCAwIDAgMSA1LjE2NS01LjE2M0EzLjc4IDMuNzggMCAwIDEgOS40IDguMThhMy44IDMuOCAwIDAgMS0zLjI3LTEuODl6TTExIDMuNDlhMS44NCAxLjg0IDAgMCAwLTEuNTktLjkyQTEuODMgMS44MyAwIDAgMCA3LjU3IDQuNGExLjg0IDEuODQgMCAwIDAgMi43OTQgMS43MDZBMS44NCAxLjg0IDAgMCAwIDExLjI0IDQuNGExLjggMS44IDAgMCAwLS4yNC0uOTF6Ii8+JiN4YTsJPHBhdGggY2xhc3M9InN0MCBzdDIiIGQ9Ik01LjYzIDEwLjk0djUuMjJsMS44Ny0xLjQxdi0xLjYzYTMuMjkgMy4yOSAwIDAgMC0xLjg3LTIuMTh6bTUuNyAzLjg3bDQuNTItMi42MS0yLjIxLTEtMS4yNS44YTQuMjMgNC4yMyAwIDAgMC0xLjA2IDIuODZ6Ii8+JiN4YTsJPHBhdGggY2xhc3M9InN0MCBzdDEiIGQ9Ik0uNTEgMTYuN2gwYTMuNzcgMy43NyAwIDAgMSAxLjM4LTUuMTYgMy43MiAzLjcyIDAgMCAxIDIuODYtLjM4QTMuNzggMy43OCAwIDEgMSAuNTEgMTYuN3ptNC44NS0yLjgxQTEuNzkgMS43OSAwIDAgMCA0LjI1IDEzYTEuODMgMS44MyAwIDAgMC0yLjA2IDIuNjloMGMuMzI5LjU2Ni45MzQuOTE0IDEuNTg5LjkxM2ExLjgzIDEuODMgMCAwIDAgMS41ODUtLjkyYy4zMjYtLjU2OC4zMjQtMS4yNjctLjAwNC0xLjgzM3ptNi45NyAyLjQ3aDBhMy43OSAzLjc5IDAgMCAxIDAtMy43NyAzLjc5IDMuNzkgMCAwIDEgNS4xNi0xLjM5IDMuNzggMy43OCAwIDAgMS0xLjg5IDcuMDQ0IDMuNzggMy43OCAwIDAgMS0zLjI3LTEuODg0em00Ljg2LTIuODFhMiAyIDAgMCAwLS42Ny0uNjcgMS44NSAxLjg1IDAgMCAwLTIuNTEuNjggMS44NiAxLjg2IDAgMCAwIDAgMS44MyAxLjgzIDEuODMgMCAwIDAgMi4wNy44NSAxLjgyIDEuODIgMCAwIDAgMS4xMS0uODUgMS44OCAxLjg4IDAgMCAwIDAtMS44NHoiLz4mI3hhOwk8cGF0aCBjbGFzcz0ic3QwIHN0MyIgZD0iTTcuNDkgMTQuMTVsLTIuOCAyLjI1IDIuODYtMS42NWE0LjA3IDQuMDcgMCAwIDAtLjA2LS42ek04LjE1IDhsLS41OS0zLjZ2My4yOWEzLjQ3IDMuNDcgMCAwIDAgLjU5LjI3em01LjE1IDMuNDdsMy4yMiAxLjQxLTIuODYtMS42NGExLjY5IDEuNjkgMCAwIDAtLjM2LjIzeiIvPiYjeGE7PC9zdmc+;" vertex="1" parent="QXXMCkPutqWShWGLUhhg-14">
          <mxGeometry width="30" height="28" relative="1" as="geometry">
            <mxPoint x="15" y="16" as="offset" />
          </mxGeometry>
        </mxCell>
        <mxCell id="3G-a1V1a3atReoGCNqKE-1" value="" style="edgeStyle=orthogonalEdgeStyle;fontSize=12;html=1;endArrow=blockThin;endFill=1;rounded=0;strokeWidth=2;endSize=4;startSize=4;dashed=0;strokeColor=#4284F3;curved=1;exitX=0;exitY=0.5;exitDx=0;exitDy=0;entryX=1;entryY=0.5;entryDx=0;entryDy=0;" edge="1" parent="QXXMCkPutqWShWGLUhhg-54" source="QXXMCkPutqWShWGLUhhg-37" target="QXXMCkPutqWShWGLUhhg-14">
          <mxGeometry width="100" relative="1" as="geometry">
            <mxPoint x="660" y="480" as="sourcePoint" />
            <mxPoint x="760" y="480" as="targetPoint" />
          </mxGeometry>
        </mxCell>
        <mxCell id="qG5vpYIqxoFqaB7RPqj--1" value="" style="edgeStyle=orthogonalEdgeStyle;fontSize=12;html=1;endArrow=blockThin;endFill=1;rounded=0;strokeWidth=2;endSize=4;startSize=4;dashed=0;strokeColor=#4284F3;curved=1;exitX=1;exitY=0.25;exitDx=0;exitDy=0;entryX=0;entryY=0.25;entryDx=0;entryDy=0;" edge="1" parent="QXXMCkPutqWShWGLUhhg-54" source="QXXMCkPutqWShWGLUhhg-46" target="QXXMCkPutqWShWGLUhhg-14">
          <mxGeometry width="100" relative="1" as="geometry">
            <mxPoint x="510" y="460" as="sourcePoint" />
            <mxPoint x="610" y="460" as="targetPoint" />
          </mxGeometry>
        </mxCell>
        <mxCell id="anXVyF-UfBcwdsRofRuM-1" value="" style="edgeStyle=orthogonalEdgeStyle;fontSize=12;html=1;endArrow=blockThin;endFill=1;rounded=0;strokeWidth=2;endSize=4;startSize=4;strokeColor=#EA4335;dashed=0;curved=1;exitX=0;exitY=0.75;exitDx=0;exitDy=0;entryX=1;entryY=0.75;entryDx=0;entryDy=0;" edge="1" parent="QXXMCkPutqWShWGLUhhg-54" source="QXXMCkPutqWShWGLUhhg-14" target="QXXMCkPutqWShWGLUhhg-46">
          <mxGeometry width="100" relative="1" as="geometry">
            <mxPoint x="480" y="480" as="sourcePoint" />
            <mxPoint x="580" y="480" as="targetPoint" />
          </mxGeometry>
        </mxCell>
        <mxCell id="sSrqozn0_6WIwNc4vqpM-4" value="" style="edgeStyle=orthogonalEdgeStyle;fontSize=12;html=1;endArrow=blockThin;endFill=1;rounded=0;strokeWidth=2;endSize=4;startSize=4;dashed=0;strokeColor=#4284F3;curved=1;exitX=1;exitY=0.75;exitDx=0;exitDy=0;entryX=0;entryY=0.5;entryDx=0;entryDy=0;" edge="1" parent="QXXMCkPutqWShWGLUhhg-54" source="QXXMCkPutqWShWGLUhhg-48" target="QXXMCkPutqWShWGLUhhg-26">
          <mxGeometry width="100" relative="1" as="geometry">
            <mxPoint x="440" y="430" as="sourcePoint" />
            <mxPoint x="540" y="430" as="targetPoint" />
          </mxGeometry>
        </mxCell>
        <mxCell id="sSrqozn0_6WIwNc4vqpM-5" value="" style="edgeStyle=orthogonalEdgeStyle;fontSize=12;html=1;endArrow=blockThin;endFill=1;rounded=0;strokeWidth=2;endSize=4;startSize=4;dashed=0;strokeColor=#4284F3;curved=1;exitX=0.5;exitY=1;exitDx=0;exitDy=0;entryX=1;entryY=0.25;entryDx=0;entryDy=0;" edge="1" parent="QXXMCkPutqWShWGLUhhg-54" source="QXXMCkPutqWShWGLUhhg-14" target="QXXMCkPutqWShWGLUhhg-48">
          <mxGeometry width="100" relative="1" as="geometry">
            <mxPoint x="610" y="510" as="sourcePoint" />
            <mxPoint x="710" y="510" as="targetPoint" />
          </mxGeometry>
        </mxCell>
        <mxCell id="zqAJkGT3YiTMNtJ41EG3-5" value="" style="edgeStyle=orthogonalEdgeStyle;fontSize=12;html=1;endArrow=blockThin;endFill=1;rounded=0;strokeWidth=2;endSize=4;startSize=4;dashed=0;strokeColor=#4284F3;curved=1;exitX=1;exitY=0.5;exitDx=0;exitDy=0;entryX=0;entryY=0.5;entryDx=0;entryDy=0;" edge="1" parent="sSrqozn0_6WIwNc4vqpM-6" source="WIaLbskBH2RuXim7a0bt-14" target="QXXMCkPutqWShWGLUhhg-46">
          <mxGeometry width="100" relative="1" as="geometry">
            <mxPoint x="510" y="590" as="sourcePoint" />
            <mxPoint x="610" y="590" as="targetPoint" />
          </mxGeometry>
        </mxCell>
        <mxCell id="QXXMCkPutqWShWGLUhhg-42" value="" style="edgeStyle=orthogonalEdgeStyle;fontSize=12;html=1;endArrow=blockThin;endFill=1;rounded=0;strokeWidth=2;endSize=4;startSize=4;dashed=0;strokeColor=#4284F3;curved=1;exitX=1;exitY=0.5;exitDx=0;exitDy=0;entryX=0;entryY=0.5;entryDx=0;entryDy=0;" edge="1" parent="1" source="WIaLbskBH2RuXim7a0bt-20" target="WIaLbskBH2RuXim7a0bt-14">
          <mxGeometry width="100" relative="1" as="geometry">
            <mxPoint x="-720" y="380" as="sourcePoint" />
            <mxPoint x="-620" y="380" as="targetPoint" />
          </mxGeometry>
        </mxCell>
      </root>
    </mxGraphModel>
  </diagram>
  <diagram name="LakeHouse System Architecture" id="DnbCVEGL4NGHDWXsDwcz">
    <mxGraphModel dx="2266" dy="959" grid="1" gridSize="10" guides="1" tooltips="1" connect="1" arrows="1" fold="1" page="0" pageScale="1" pageWidth="827" pageHeight="1169" math="0" shadow="0">
      <root>
        <mxCell id="0" />
        <mxCell id="1" parent="0" />
        <mxCell id="DWCYz7jvgOxIBVaaJGS4-29" value="" style="group" vertex="1" connectable="0" parent="1">
          <mxGeometry x="290" y="240" width="1130" height="460" as="geometry" />
        </mxCell>
        <mxCell id="DWCYz7jvgOxIBVaaJGS4-22" value="" style="rounded=0;whiteSpace=wrap;html=1;fillColor=#F6F6F6;strokeColor=none;" vertex="1" parent="DWCYz7jvgOxIBVaaJGS4-29">
          <mxGeometry width="1130" height="460" as="geometry" />
        </mxCell>
        <mxCell id="DWCYz7jvgOxIBVaaJGS4-27" value="" style="group" vertex="1" connectable="0" parent="DWCYz7jvgOxIBVaaJGS4-29">
          <mxGeometry x="20" y="40" width="1090" height="390" as="geometry" />
        </mxCell>
        <mxCell id="imymY8hakE917u7slTIA-47" value="" style="rounded=0;whiteSpace=wrap;html=1;fillColor=#F1F8E9;strokeColor=none;" parent="DWCYz7jvgOxIBVaaJGS4-27" vertex="1">
          <mxGeometry width="1090" height="390" as="geometry" />
        </mxCell>
        <mxCell id="imymY8hakE917u7slTIA-49" value="&lt;span style=&quot;font-size: 12px;&quot;&gt;LakeHouse System&lt;/span&gt;" style="text;html=1;align=center;verticalAlign=middle;whiteSpace=wrap;rounded=0;fontSize=16;" parent="DWCYz7jvgOxIBVaaJGS4-27" vertex="1">
          <mxGeometry width="130" height="30" as="geometry" />
        </mxCell>
        <mxCell id="DWCYz7jvgOxIBVaaJGS4-26" value="" style="group" vertex="1" connectable="0" parent="DWCYz7jvgOxIBVaaJGS4-27">
          <mxGeometry x="20" y="40" width="1040" height="320" as="geometry" />
        </mxCell>
        <mxCell id="imymY8hakE917u7slTIA-43" value="" style="rounded=0;whiteSpace=wrap;html=1;fillColor=#ECEFF1;strokeColor=none;" parent="DWCYz7jvgOxIBVaaJGS4-26" vertex="1">
          <mxGeometry width="1040" height="320" as="geometry" />
        </mxCell>
        <mxCell id="imymY8hakE917u7slTIA-46" value="&lt;font style=&quot;font-size: 12px;&quot;&gt;Region: us-central1&lt;/font&gt;" style="text;html=1;align=center;verticalAlign=middle;whiteSpace=wrap;rounded=0;fontSize=16;" parent="DWCYz7jvgOxIBVaaJGS4-26" vertex="1">
          <mxGeometry width="120" height="30" as="geometry" />
        </mxCell>
        <mxCell id="DWCYz7jvgOxIBVaaJGS4-24" value="" style="group" vertex="1" connectable="0" parent="DWCYz7jvgOxIBVaaJGS4-26">
          <mxGeometry x="30" y="40" width="980" height="230" as="geometry" />
        </mxCell>
        <mxCell id="imymY8hakE917u7slTIA-45" value="" style="group" parent="DWCYz7jvgOxIBVaaJGS4-24" vertex="1" connectable="0">
          <mxGeometry x="330" width="650" height="230" as="geometry" />
        </mxCell>
        <mxCell id="imymY8hakE917u7slTIA-35" value="" style="group" parent="imymY8hakE917u7slTIA-45" vertex="1" connectable="0">
          <mxGeometry width="320" height="110" as="geometry" />
        </mxCell>
        <mxCell id="imymY8hakE917u7slTIA-28" value="" style="rounded=0;whiteSpace=wrap;html=1;fillColor=#E3F2FD;strokeColor=none;align=left;" parent="imymY8hakE917u7slTIA-35" vertex="1">
          <mxGeometry width="320" height="110" as="geometry" />
        </mxCell>
        <mxCell id="imymY8hakE917u7slTIA-29" value="&lt;font style=&quot;font-size: 12px;&quot;&gt;Procesing Layer&lt;/font&gt;" style="text;html=1;align=center;verticalAlign=middle;whiteSpace=wrap;rounded=0;fontSize=16;" parent="imymY8hakE917u7slTIA-35" vertex="1">
          <mxGeometry width="100" height="30" as="geometry" />
        </mxCell>
        <mxCell id="imymY8hakE917u7slTIA-23" value="" style="strokeColor=#dddddd;shadow=1;strokeWidth=1;rounded=1;absoluteArcSize=1;arcSize=2;" parent="imymY8hakE917u7slTIA-35" vertex="1">
          <mxGeometry x="20" y="30" width="280" height="60" as="geometry" />
        </mxCell>
        <mxCell id="imymY8hakE917u7slTIA-24" value="&lt;font color=&quot;#000000&quot;&gt;dp_lakehouse_workflow_dev&lt;/font&gt;&lt;br&gt;Dataproc" style="editableCssRules=.*;html=1;fontColor=#999999;shape=image;verticalLabelPosition=middle;verticalAlign=middle;labelPosition=right;align=left;spacingLeft=20;part=1;points=[];imageAspect=0;image=data:image/svg+xml,PHN2ZyB4bWxucz0iaHR0cDovL3d3dy53My5vcmcvMjAwMC9zdmciIHhtbG5zOnY9Imh0dHBzOi8vdmVjdGEuaW8vbmFubyIgd2lkdGg9IjE5LjM2MzAxMjMxMzg0Mjc3MyIgaGVpZ2h0PSIxNy45NzU1MjY4MDk2OTIzODMiIHZpZXdCb3g9IjAuMDAwNTYwMDI1NjI2MzI3ODQyNSAwLjYxOTYyOTc0MDcxNTAyNjkgMTkuMzYzMDEyMzEzODQyNzczIDE3Ljk3NTUyNjgwOTY5MjM4MyI+JiN4YTsJPHN0eWxlIHR5cGU9InRleHQvY3NzIj4mI3hhOwkuc3Qwe2ZpbGwtcnVsZTpldmVub2RkO30mI3hhOwkuc3Qxe2ZpbGw6I2FlY2JmYTt9JiN4YTsJLnN0MntmaWxsOiM0Mjg1ZjQ7fSYjeGE7CS5zdDN7ZmlsbDojNjY5ZGY2O30mI3hhOwk8L3N0eWxlPiYjeGE7CTxnIGNsYXNzPSJzdDAgc3QxIj4mI3hhOwkJPHBhdGggZD0iTTQuNjkgMTYuNGwxMC4xOS01Ljg5Ljk3IDEuNjktMTAuMTggNS44OHoiLz4mI3hhOwkJPHBhdGggZD0iTTcuNSA0LjR2MTAuMzVsLTEuODcgMS40MVY0LjR6Ii8+JiN4YTsJCTxwYXRoIGQ9Ik0xNy40OSAxMS4ybC0uOTcgMS42OC04Ljk2LTUuMTktLjI2LTIuMzZ6Ii8+JiN4YTsJPC9nPiYjeGE7CTxwYXRoIGNsYXNzPSJzdDAgc3QyIiBkPSJNMTIuMzkgOC4yNkw3LjMgNS4zM2wuMjYgMi4zNiAxLjUxLjg2YTQgNCAwIDAgMCAzLjMyLS4yOXoiLz4mI3hhOwk8cGF0aCBjbGFzcz0ic3QwIHN0MSIgZD0iTTYuMTMgNi4yOWgwYTMuNzggMy43OCAwIDAgMSA1LjE2NS01LjE2M0EzLjc4IDMuNzggMCAwIDEgOS40IDguMThhMy44IDMuOCAwIDAgMS0zLjI3LTEuODl6TTExIDMuNDlhMS44NCAxLjg0IDAgMCAwLTEuNTktLjkyQTEuODMgMS44MyAwIDAgMCA3LjU3IDQuNGExLjg0IDEuODQgMCAwIDAgMi43OTQgMS43MDZBMS44NCAxLjg0IDAgMCAwIDExLjI0IDQuNGExLjggMS44IDAgMCAwLS4yNC0uOTF6Ii8+JiN4YTsJPHBhdGggY2xhc3M9InN0MCBzdDIiIGQ9Ik01LjYzIDEwLjk0djUuMjJsMS44Ny0xLjQxdi0xLjYzYTMuMjkgMy4yOSAwIDAgMC0xLjg3LTIuMTh6bTUuNyAzLjg3bDQuNTItMi42MS0yLjIxLTEtMS4yNS44YTQuMjMgNC4yMyAwIDAgMC0xLjA2IDIuODZ6Ii8+JiN4YTsJPHBhdGggY2xhc3M9InN0MCBzdDEiIGQ9Ik0uNTEgMTYuN2gwYTMuNzcgMy43NyAwIDAgMSAxLjM4LTUuMTYgMy43MiAzLjcyIDAgMCAxIDIuODYtLjM4QTMuNzggMy43OCAwIDEgMSAuNTEgMTYuN3ptNC44NS0yLjgxQTEuNzkgMS43OSAwIDAgMCA0LjI1IDEzYTEuODMgMS44MyAwIDAgMC0yLjA2IDIuNjloMGMuMzI5LjU2Ni45MzQuOTE0IDEuNTg5LjkxM2ExLjgzIDEuODMgMCAwIDAgMS41ODUtLjkyYy4zMjYtLjU2OC4zMjQtMS4yNjctLjAwNC0xLjgzM3ptNi45NyAyLjQ3aDBhMy43OSAzLjc5IDAgMCAxIDAtMy43NyAzLjc5IDMuNzkgMCAwIDEgNS4xNi0xLjM5IDMuNzggMy43OCAwIDAgMS0xLjg5IDcuMDQ0IDMuNzggMy43OCAwIDAgMS0zLjI3LTEuODg0em00Ljg2LTIuODFhMiAyIDAgMCAwLS42Ny0uNjcgMS44NSAxLjg1IDAgMCAwLTIuNTEuNjggMS44NiAxLjg2IDAgMCAwIDAgMS44MyAxLjgzIDEuODMgMCAwIDAgMi4wNy44NSAxLjgyIDEuODIgMCAwIDAgMS4xMS0uODUgMS44OCAxLjg4IDAgMCAwIDAtMS44NHoiLz4mI3hhOwk8cGF0aCBjbGFzcz0ic3QwIHN0MyIgZD0iTTcuNDkgMTQuMTVsLTIuOCAyLjI1IDIuODYtMS42NWE0LjA3IDQuMDcgMCAwIDAtLjA2LS42ek04LjE1IDhsLS41OS0zLjZ2My4yOWEzLjQ3IDMuNDcgMCAwIDAgLjU5LjI3em01LjE1IDMuNDdsMy4yMiAxLjQxLTIuODYtMS42NGExLjY5IDEuNjkgMCAwIDAtLjM2LjIzeiIvPiYjeGE7PC9zdmc+;" parent="imymY8hakE917u7slTIA-23" vertex="1">
          <mxGeometry width="30" height="28" relative="1" as="geometry">
            <mxPoint x="15" y="16" as="offset" />
          </mxGeometry>
        </mxCell>
        <mxCell id="imymY8hakE917u7slTIA-38" value="" style="group" parent="imymY8hakE917u7slTIA-45" vertex="1" connectable="0">
          <mxGeometry x="330" width="320" height="230" as="geometry" />
        </mxCell>
        <mxCell id="imymY8hakE917u7slTIA-30" value="" style="rounded=0;whiteSpace=wrap;html=1;fillColor=#E3F2FD;strokeColor=none;align=left;" parent="imymY8hakE917u7slTIA-38" vertex="1">
          <mxGeometry width="320" height="230" as="geometry" />
        </mxCell>
        <mxCell id="imymY8hakE917u7slTIA-31" value="&lt;font style=&quot;font-size: 12px;&quot;&gt;Storage Layer&lt;/font&gt;" style="text;html=1;align=center;verticalAlign=middle;whiteSpace=wrap;rounded=0;fontSize=16;" parent="imymY8hakE917u7slTIA-38" vertex="1">
          <mxGeometry width="90" height="30" as="geometry" />
        </mxCell>
        <mxCell id="imymY8hakE917u7slTIA-17" value="" style="strokeColor=#dddddd;shadow=1;strokeWidth=1;rounded=1;absoluteArcSize=1;arcSize=2;" parent="imymY8hakE917u7slTIA-38" vertex="1">
          <mxGeometry x="20" y="30" width="280" height="60" as="geometry" />
        </mxCell>
        <mxCell id="imymY8hakE917u7slTIA-18" value="&lt;font color=&quot;#000000&quot;&gt;sif-med-lakehouse-raw-data-dev&lt;/font&gt;&lt;br&gt;Cloud Storage" style="editableCssRules=.*;html=1;fontColor=#999999;shape=image;verticalLabelPosition=middle;verticalAlign=middle;labelPosition=right;align=left;spacingLeft=20;part=1;points=[];imageAspect=0;image=data:image/svg+xml,PHN2ZyB4bWxucz0iaHR0cDovL3d3dy53My5vcmcvMjAwMC9zdmciIHhtbG5zOnY9Imh0dHBzOi8vdmVjdGEuaW8vbmFubyIgd2lkdGg9IjIwIiBoZWlnaHQ9IjE2IiB2aWV3Qm94PSIwIDAgMjAgMTYiPiYjeGE7CTxzdHlsZSB0eXBlPSJ0ZXh0L2NzcyI+JiN4YTsJLnN0MHtmaWxsOiM0Mjg1ZjQ7fSYjeGE7CS5zdDF7ZmlsbDojNjY5ZGY2O30mI3hhOwkuc3Qye2ZpbGw6I2FlY2JmYTt9JiN4YTsJLnN0M3tmaWxsOiNmZmY7fSYjeGE7CTwvc3R5bGU+JiN4YTsJPHBhdGggY2xhc3M9InN0MiIgZD0iTTAgMGgyMHY3SDB6Ii8+JiN4YTsJPHBhdGggY2xhc3M9InN0MSIgZD0iTTE4IDBoMnY3aC0yeiIvPiYjeGE7CTxwYXRoIGNsYXNzPSJzdDAiIGQ9Ik0xOCA3bDItN2gtMnoiLz4mI3hhOwk8cGF0aCBjbGFzcz0ic3QxIiBkPSJNMCAwaDJ2N0gweiIvPiYjeGE7CTxnIGNsYXNzPSJzdDMiPiYjeGE7CQk8cGF0aCBkPSJNNCAzaDZ2MUg0eiIvPiYjeGE7CQk8cmVjdCB4PSIxMyIgeT0iMiIgd2lkdGg9IjMiIGhlaWdodD0iMyIgcng9IjEuNSIvPiYjeGE7CTwvZz4mI3hhOwk8cGF0aCBjbGFzcz0ic3QyIiBkPSJNMCA5aDIwdjdIMHoiLz4mI3hhOwk8cGF0aCBjbGFzcz0ic3QxIiBkPSJNMTggOWgydjdoLTJ6Ii8+JiN4YTsJPHBhdGggY2xhc3M9InN0MCIgZD0iTTE4IDE2bDItN2gtMnoiLz4mI3hhOwk8cGF0aCBjbGFzcz0ic3QxIiBkPSJNMCA5aDJ2N0gweiIvPiYjeGE7CTxnIGNsYXNzPSJzdDMiPiYjeGE7CQk8cGF0aCBkPSJNNCAxMmg2djFINHoiLz4mI3hhOwkJPHJlY3QgeD0iMTMiIHk9IjExIiB3aWR0aD0iMyIgaGVpZ2h0PSIzIiByeD0iMS41Ii8+JiN4YTsJPC9nPiYjeGE7PC9zdmc+;" parent="imymY8hakE917u7slTIA-17" vertex="1">
          <mxGeometry width="30" height="24" relative="1" as="geometry">
            <mxPoint x="15" y="18" as="offset" />
          </mxGeometry>
        </mxCell>
        <mxCell id="imymY8hakE917u7slTIA-21" value="" style="strokeColor=#dddddd;shadow=1;strokeWidth=1;rounded=1;absoluteArcSize=1;arcSize=2;" parent="imymY8hakE917u7slTIA-38" vertex="1">
          <mxGeometry x="20" y="110" width="280" height="60" as="geometry" />
        </mxCell>
        <mxCell id="imymY8hakE917u7slTIA-22" value="&lt;font color=&quot;#000000&quot;&gt;sif-med-lakehouse-trusted-data-dev&lt;/font&gt;&lt;br&gt;Cloud Storage" style="editableCssRules=.*;html=1;fontColor=#999999;shape=image;verticalLabelPosition=middle;verticalAlign=middle;labelPosition=right;align=left;spacingLeft=20;part=1;points=[];imageAspect=0;image=data:image/svg+xml,PHN2ZyB4bWxucz0iaHR0cDovL3d3dy53My5vcmcvMjAwMC9zdmciIHhtbG5zOnY9Imh0dHBzOi8vdmVjdGEuaW8vbmFubyIgd2lkdGg9IjIwIiBoZWlnaHQ9IjE2IiB2aWV3Qm94PSIwIDAgMjAgMTYiPiYjeGE7CTxzdHlsZSB0eXBlPSJ0ZXh0L2NzcyI+JiN4YTsJLnN0MHtmaWxsOiM0Mjg1ZjQ7fSYjeGE7CS5zdDF7ZmlsbDojNjY5ZGY2O30mI3hhOwkuc3Qye2ZpbGw6I2FlY2JmYTt9JiN4YTsJLnN0M3tmaWxsOiNmZmY7fSYjeGE7CTwvc3R5bGU+JiN4YTsJPHBhdGggY2xhc3M9InN0MiIgZD0iTTAgMGgyMHY3SDB6Ii8+JiN4YTsJPHBhdGggY2xhc3M9InN0MSIgZD0iTTE4IDBoMnY3aC0yeiIvPiYjeGE7CTxwYXRoIGNsYXNzPSJzdDAiIGQ9Ik0xOCA3bDItN2gtMnoiLz4mI3hhOwk8cGF0aCBjbGFzcz0ic3QxIiBkPSJNMCAwaDJ2N0gweiIvPiYjeGE7CTxnIGNsYXNzPSJzdDMiPiYjeGE7CQk8cGF0aCBkPSJNNCAzaDZ2MUg0eiIvPiYjeGE7CQk8cmVjdCB4PSIxMyIgeT0iMiIgd2lkdGg9IjMiIGhlaWdodD0iMyIgcng9IjEuNSIvPiYjeGE7CTwvZz4mI3hhOwk8cGF0aCBjbGFzcz0ic3QyIiBkPSJNMCA5aDIwdjdIMHoiLz4mI3hhOwk8cGF0aCBjbGFzcz0ic3QxIiBkPSJNMTggOWgydjdoLTJ6Ii8+JiN4YTsJPHBhdGggY2xhc3M9InN0MCIgZD0iTTE4IDE2bDItN2gtMnoiLz4mI3hhOwk8cGF0aCBjbGFzcz0ic3QxIiBkPSJNMCA5aDJ2N0gweiIvPiYjeGE7CTxnIGNsYXNzPSJzdDMiPiYjeGE7CQk8cGF0aCBkPSJNNCAxMmg2djFINHoiLz4mI3hhOwkJPHJlY3QgeD0iMTMiIHk9IjExIiB3aWR0aD0iMyIgaGVpZ2h0PSIzIiByeD0iMS41Ii8+JiN4YTsJPC9nPiYjeGE7PC9zdmc+;" parent="imymY8hakE917u7slTIA-21" vertex="1">
          <mxGeometry width="30" height="24" relative="1" as="geometry">
            <mxPoint x="15" y="18" as="offset" />
          </mxGeometry>
        </mxCell>
        <mxCell id="imymY8hakE917u7slTIA-39" value="" style="group" parent="imymY8hakE917u7slTIA-45" vertex="1" connectable="0">
          <mxGeometry y="120" width="320" height="110" as="geometry" />
        </mxCell>
        <mxCell id="imymY8hakE917u7slTIA-44" value="" style="group" parent="imymY8hakE917u7slTIA-39" vertex="1" connectable="0">
          <mxGeometry width="320" height="110" as="geometry" />
        </mxCell>
        <mxCell id="imymY8hakE917u7slTIA-34" value="" style="rounded=0;whiteSpace=wrap;html=1;fillColor=#E3F2FD;strokeColor=none;align=left;" parent="imymY8hakE917u7slTIA-44" vertex="1">
          <mxGeometry width="320" height="110" as="geometry" />
        </mxCell>
        <mxCell id="imymY8hakE917u7slTIA-32" value="" style="strokeColor=#dddddd;shadow=1;strokeWidth=1;rounded=1;absoluteArcSize=1;arcSize=2;" parent="imymY8hakE917u7slTIA-44" vertex="1">
          <mxGeometry x="20" y="30" width="280" height="60" as="geometry" />
        </mxCell>
        <mxCell id="imymY8hakE917u7slTIA-33" value="&lt;font color=&quot;#000000&quot;&gt;trusted_mobile_app_external_tables&lt;/font&gt;&lt;br&gt;BigQuery" style="editableCssRules=.*;html=1;fontColor=#999999;shape=image;verticalLabelPosition=middle;verticalAlign=middle;labelPosition=right;align=left;spacingLeft=20;part=1;points=[];imageAspect=0;image=data:image/svg+xml,PHN2ZyB4bWxucz0iaHR0cDovL3d3dy53My5vcmcvMjAwMC9zdmciIHhtbG5zOnY9Imh0dHBzOi8vdmVjdGEuaW8vbmFubyIgd2lkdGg9IjIwLjAwMTA0NTIyNzA1MDc4IiBoZWlnaHQ9IjIwLjAwMTA0NTIyNzA1MDc4IiBmaWxsLXJ1bGU9ImV2ZW5vZGQiIHZpZXdCb3g9IjAgMCAyMC4wMDEwNDUyMjcwNTA3OCAyMC4wMDEwNDUyMjcwNTA3OCI+JiN4YTsJPHN0eWxlIHR5cGU9InRleHQvY3NzIj4mI3hhOwkuc3Qwe2ZpbGw6I2FlY2JmYTt9JiN4YTsJLnN0MXtmaWxsOiM2NjlkZjY7fSYjeGE7CS5zdDJ7ZmlsbDojNDI4NWY0O30mI3hhOwk8L3N0eWxlPiYjeGE7CTxwYXRoIGNsYXNzPSJzdDAiIGQ9Ik00LjczIDguODN2Mi42M2E0LjkxIDQuOTEgMCAwIDAgMS43MSAxLjc0VjguODN6Ii8+JiN4YTsJPHBhdGggY2xhc3M9InN0MSIgZD0iTTcuODkgNi40MXY3LjUzQTcuNjIgNy42MiAwIDAgMCA5IDE0YTggOCAwIDAgMCAxIDBWNi40MXoiLz4mI3hhOwk8cGF0aCBjbGFzcz0ic3QwIiBkPSJNMTEuNjQgOS44NnYzLjI5YTUgNSAwIDAgMCAxLjctMS44MlY5Ljg2eiIvPiYjeGE7CTxwYXRoIGNsYXNzPSJzdDIiIGQ9Ik0xNS43NCAxNC4zMmwtMS40MiAxLjQyYS40Mi40MiAwIDAgMCAwIC42bDMuNTQgMy41NGEuNDIuNDIgMCAwIDAgLjU5IDBsMS40My0xLjQzYS40Mi40MiAwIDAgMCAwLS41OWwtMy41NC0zLjU0YS40Mi40MiAwIDAgMC0uNiAwIi8+JiN4YTsJPHBhdGggY2xhc3M9InN0MSIgZD0iTTkgMGE5IDkgMCAxIDAgMCAxOEE5IDkgMCAxIDAgOSAwbTAgMTUuNjlhNi42OCA2LjY4IDAgMCAxIC4wMDctMTMuMzYgNi42OCA2LjY4IDAgMCAxIDQuNzI3IDExLjQwM0E2LjY4IDYuNjggMCAwIDEgOSAxNS42OSIvPiYjeGE7PC9zdmc+;" parent="imymY8hakE917u7slTIA-32" vertex="1">
          <mxGeometry width="30" height="30" relative="1" as="geometry">
            <mxPoint x="15" y="15" as="offset" />
          </mxGeometry>
        </mxCell>
        <mxCell id="imymY8hakE917u7slTIA-37" value="&lt;font style=&quot;font-size: 12px;&quot;&gt;Analytics Layer&lt;/font&gt;" style="text;html=1;align=center;verticalAlign=middle;whiteSpace=wrap;rounded=0;fontSize=16;" parent="imymY8hakE917u7slTIA-44" vertex="1">
          <mxGeometry width="100" height="30" as="geometry" />
        </mxCell>
        <mxCell id="imymY8hakE917u7slTIA-40" value="" style="edgeStyle=orthogonalEdgeStyle;fontSize=12;html=1;endArrow=none;endFill=0;rounded=0;strokeWidth=2;endSize=4;startSize=4;dashed=0;strokeColor=#4284F3;curved=1;exitX=1;exitY=0.25;exitDx=0;exitDy=0;entryX=0;entryY=0.25;entryDx=0;entryDy=0;startArrow=blockThin;startFill=1;" parent="imymY8hakE917u7slTIA-45" source="imymY8hakE917u7slTIA-23" target="imymY8hakE917u7slTIA-17" edge="1">
          <mxGeometry width="100" relative="1" as="geometry">
            <mxPoint x="390" y="330" as="sourcePoint" />
            <mxPoint x="490" y="330" as="targetPoint" />
          </mxGeometry>
        </mxCell>
        <mxCell id="imymY8hakE917u7slTIA-41" value="" style="edgeStyle=orthogonalEdgeStyle;fontSize=12;html=1;endArrow=blockThin;endFill=1;rounded=0;strokeWidth=2;endSize=4;startSize=4;dashed=0;strokeColor=#4284F3;curved=1;exitX=0.5;exitY=1;exitDx=0;exitDy=0;entryX=0;entryY=0.25;entryDx=0;entryDy=0;" parent="imymY8hakE917u7slTIA-45" source="imymY8hakE917u7slTIA-23" target="imymY8hakE917u7slTIA-21" edge="1">
          <mxGeometry width="100" relative="1" as="geometry">
            <mxPoint x="370" y="370" as="sourcePoint" />
            <mxPoint x="470" y="370" as="targetPoint" />
          </mxGeometry>
        </mxCell>
        <mxCell id="imymY8hakE917u7slTIA-42" value="" style="edgeStyle=orthogonalEdgeStyle;fontSize=12;html=1;endArrow=none;endFill=0;rounded=0;strokeWidth=2;endSize=4;startSize=4;dashed=0;strokeColor=#4284F3;curved=1;exitX=1;exitY=0.5;exitDx=0;exitDy=0;entryX=0;entryY=0.75;entryDx=0;entryDy=0;startArrow=blockThin;startFill=1;" parent="imymY8hakE917u7slTIA-45" source="imymY8hakE917u7slTIA-32" target="imymY8hakE917u7slTIA-21" edge="1">
          <mxGeometry width="100" relative="1" as="geometry">
            <mxPoint x="360" y="360" as="sourcePoint" />
            <mxPoint x="460" y="360" as="targetPoint" />
          </mxGeometry>
        </mxCell>
        <mxCell id="DWCYz7jvgOxIBVaaJGS4-19" value="" style="edgeStyle=orthogonalEdgeStyle;fontSize=12;html=1;endArrow=blockThin;endFill=1;rounded=0;strokeWidth=2;endSize=4;startSize=4;strokeColor=#EA4335;dashed=0;curved=1;exitX=1;exitY=0.75;exitDx=0;exitDy=0;entryX=0;entryY=0.75;entryDx=0;entryDy=0;" edge="1" parent="imymY8hakE917u7slTIA-45" source="imymY8hakE917u7slTIA-23" target="imymY8hakE917u7slTIA-17">
          <mxGeometry width="100" relative="1" as="geometry">
            <mxPoint x="260" y="570" as="sourcePoint" />
            <mxPoint x="360" y="570" as="targetPoint" />
          </mxGeometry>
        </mxCell>
        <mxCell id="DWCYz7jvgOxIBVaaJGS4-1" value="" style="group" vertex="1" connectable="0" parent="DWCYz7jvgOxIBVaaJGS4-24">
          <mxGeometry width="320" height="230" as="geometry" />
        </mxCell>
        <mxCell id="DWCYz7jvgOxIBVaaJGS4-23" value="" style="group" vertex="1" connectable="0" parent="DWCYz7jvgOxIBVaaJGS4-1">
          <mxGeometry width="320" height="230" as="geometry" />
        </mxCell>
        <mxCell id="DWCYz7jvgOxIBVaaJGS4-2" value="" style="rounded=0;whiteSpace=wrap;html=1;fillColor=#E3F2FD;strokeColor=none;align=left;" vertex="1" parent="DWCYz7jvgOxIBVaaJGS4-23">
          <mxGeometry width="320" height="230" as="geometry" />
        </mxCell>
        <mxCell id="DWCYz7jvgOxIBVaaJGS4-3" value="&lt;span style=&quot;font-size: 12px;&quot;&gt;Orchestration Layer&lt;/span&gt;" style="text;html=1;align=center;verticalAlign=middle;whiteSpace=wrap;rounded=0;fontSize=16;" vertex="1" parent="DWCYz7jvgOxIBVaaJGS4-23">
          <mxGeometry width="120" height="30" as="geometry" />
        </mxCell>
        <mxCell id="DWCYz7jvgOxIBVaaJGS4-14" value="" style="strokeColor=#dddddd;shadow=1;strokeWidth=1;rounded=1;absoluteArcSize=1;arcSize=2;" vertex="1" parent="DWCYz7jvgOxIBVaaJGS4-23">
          <mxGeometry x="10" y="85" width="290" height="60" as="geometry" />
        </mxCell>
        <mxCell id="DWCYz7jvgOxIBVaaJGS4-15" value="&lt;font color=&quot;#000000&quot;&gt;&lt;font&gt;cs-lakehouse-mobileapp-scheduler-dev&lt;/font&gt;&lt;br&gt;&lt;/font&gt;CloudScheduler" style="editableCssRules=.*;html=1;shape=image;verticalLabelPosition=middle;labelBackgroundColor=none;verticalAlign=middle;aspect=fixed;imageAspect=0;image=data:image/svg+xml,PHN2ZyB4bWxucz0iaHR0cDovL3d3dy53My5vcmcvMjAwMC9zdmciIHhtbG5zOnY9Imh0dHBzOi8vdmVjdGEuaW8vbmFubyIgd2lkdGg9IjM2MC4zMDM3NjY4NjA4MzYzIiBoZWlnaHQ9IjM3OC4wNTExNTgwNzc0MDg4IiB2aWV3Qm94PSItMC4wMDAxNjI0MjExNDM2MTM3NTU3IC0wLjAwMDEwMDAwNTk0OTIwNzExNTkyIDk1LjMzMDI2MTIzMDQ2ODc1IDEwMC4wMjYxMDAxNTg2OTE0Ij4mI3hhOzxzdHlsZSB0eXBlPSJ0ZXh0L2NzcyI+JiN4YTsJLnN0MHtmaWxsOiM0Mjg1ZjQ7fSYjeGE7CS5zdDF7ZmlsbDojYWVjYmZhO30mI3hhOwkuc3Qye2ZpbGw6IzY2OWRmNjt9JiN4YTs8L3N0eWxlPiYjeGE7CTxwYXRoIGNsYXNzPSJzdDAiIGQ9Ik03OS45NzEgNzcuNzE1bC03LjM1OSA3LjQ4OCA4LjYzOSA4LjQ5IDcuMzU5LTcuNDg4em0tNjUuMDk2LjA2MWwtOC42NDEgOC40OTIgNy4zNjEgNy40ODggOC42MzktOC40OXoiLz4mI3hhOwk8cGF0aCBjbGFzcz0ic3QxIiBkPSJNNzkuNTUzLjIyMWE1LjI1IDUuMjUgMCAwIDAtMy42NiA4Ljk4NEw4Ni4zODkgMTkuNThhNS4yNSA1LjI1IDAgMCAwIDguOTQxLTMuNzY1IDUuMjUgNS4yNSAwIDAgMC0xLjU2LTMuNzA0TDgzLjI3NSAxLjczOEE1LjI1IDUuMjUgMCAwIDAgNzkuNTUzLjIyMXpNMTUuOTE2IDBhNS4yNSA1LjI1IDAgMCAwLTMuNzIzIDEuNTE2TDEuNjk5IDExLjg5MWE1LjI1IDUuMjUgMCAwIDAtLjA0MyA3LjQyNCA1LjI1IDUuMjUgMCAwIDAgNy40MjQuMDQzTDE5LjU3NiA4Ljk4MkE1LjI1IDUuMjUgMCAwIDAgMTUuOTE2IDB6Ii8+JiN4YTsJPHBhdGggY2xhc3M9InN0MCIgZD0iTTQ4LjEzOCAyNi4yNGMxMy4zNDcgMCAyNS40MzIgMTEuMTM2IDI1LjMxIDI2LjQ4MSAwIDE1LjExLTEyLjI2NyAyNS42NzMtMjUuMTg5IDI1LjY3My0xMS4xNDkgMC0xOC4zMTctNS4xNzEtMjEuOTYtMTAuNzM4bDIxLjgzOS0xNS4wOTd6Ii8+JiN4YTsJPHBhdGggY2xhc3M9InN0MiIgZD0iTTgxLjI1IDkzLjY5M2w0LjY2NCA0LjU4NmE1LjI1IDUuMjUgMCAxIDAgNy4zNjEtNy40OWwtNC42NjYtNC41ODR6TTYuMjM0IDg2LjI2OEwxLjU3IDkwLjg1MWE1LjI1IDUuMjUgMCAwIDAtLjA2NSA3LjQyNCA1LjI1IDUuMjUgMCAwIDAgNy40MjQuMDY0bDQuNjY2LTQuNTg0ek00Ny4zNzEgNS41NzhDMjEuMzQ5IDUuNTc4LjE0NiAyNi43NzkuMTQ2IDUyLjgwMXMyMS4yMDMgNDcuMjI1IDQ3LjIyNSA0Ny4yMjUgNDcuMjI1LTIxLjIwMyA0Ny4yMjUtNDcuMjI1UzczLjM5MyA1LjU3OCA0Ny4zNzEgNS41Nzh6bTAgMTBhMzcuMTUgMzcuMTUgMCAwIDEgMzcuMjI1IDM3LjIyM2MwIDIwLjYxNy0xNi42MDcgMzcuMjI1LTM3LjIyNSAzNy4yMjVTMTAuMTQ2IDczLjQxOCAxMC4xNDYgNTIuODAxYTM3LjE1IDM3LjE1IDAgMCAxIDM3LjIyNS0zNy4yMjN6Ii8+JiN4YTs8L3N2Zz4=;align=left;labelPosition=right;spacingLeft=20;fontColor=#999999;" vertex="1" parent="DWCYz7jvgOxIBVaaJGS4-14">
          <mxGeometry width="30" height="28" relative="1" as="geometry">
            <mxPoint x="15" y="16" as="offset" />
          </mxGeometry>
        </mxCell>
        <mxCell id="DWCYz7jvgOxIBVaaJGS4-20" value="" style="edgeStyle=orthogonalEdgeStyle;fontSize=12;html=1;endArrow=blockThin;endFill=1;rounded=0;strokeWidth=2;endSize=4;startSize=4;dashed=0;strokeColor=#4284F3;curved=1;exitX=1;exitY=0.5;exitDx=0;exitDy=0;entryX=0;entryY=0.5;entryDx=0;entryDy=0;" edge="1" parent="DWCYz7jvgOxIBVaaJGS4-24" source="DWCYz7jvgOxIBVaaJGS4-14" target="imymY8hakE917u7slTIA-23">
          <mxGeometry width="100" relative="1" as="geometry">
            <mxPoint x="400" y="480" as="sourcePoint" />
            <mxPoint x="500" y="480" as="targetPoint" />
          </mxGeometry>
        </mxCell>
        <mxCell id="DWCYz7jvgOxIBVaaJGS4-28" value="&lt;span style=&quot;font-size: 12px;&quot;&gt;Google Cloud Platform&lt;/span&gt;" style="text;html=1;align=center;verticalAlign=middle;whiteSpace=wrap;rounded=0;fontSize=16;" vertex="1" parent="DWCYz7jvgOxIBVaaJGS4-29">
          <mxGeometry width="140" height="30" as="geometry" />
        </mxCell>
      </root>
    </mxGraphModel>
  </diagram>
</mxfile>
